Patient4_TMGait_0pt5_02_left_03_EMG.mot
version=1
nRows=16
nColumns=33
inDegrees=no
endheader
time	1LAddLong	2LGlutMax	3LGlutMed	4LIliopsoas	5LSemiMemb	6LBicFemLong	7LRecFem	8LVastMed	9LVastLat	10LGasMed	11LTibAnt	12lTibPost	13LPeroneusLong	14LSol	15LExtDigLong	16LFlexDigLong	17RAddLong	18RGlutMax	19RGlutMed	20RIliopsoas	21RSemiMemb	22RBicFemLong	23RRecFem	24RVastMed	25RVastLat	26RGasMed	27RTibAnt	28RTibPost	29RPeroneusLong	30RSol	31RExtDigLong	32RFlexDigLong
4.075	0.014343	0.11643	-0.033722	-0.006409	0.01358	-0.093689	0.13794	-0.004272	-0.043488	0.051422	-0.004578	-0.007629	0.009766	0.027618	0.005035	-0.000916	0.020752	-0.015869	0.18982	-0.16403	0.44479	-0.011597	0.079041	-0.001221	-0.25436	0.025635	0.002289	-0.00412	0.905	0.037231	-0.015869	-0.011902
4.076	0.014801	0.10147	-0.030975	0.015259	0.009308	-0.11749	0.13306	-0.000458	-0.063629	0.037842	0.011902	-0.006866	0.015259	0.014954	0.005798	0.007019	0.074768	-0.14755	0.22995	-0.11063	0.79208	-0.13397	0.099792	0.023346	-0.37689	0.01358	0.007324	-0.002289	0.4425	-0.018158	-0.010376	-0.014343
4.077	0.008392	0.077209	-0.032349	0.006714	0.003357	-0.08667	0.15823	0.003052	-0.077057	0.010071	0.002289	-0.00412	-0.00412	0.003052	0.010681	0.010071	0.074768	-0.1294	0.010834	0.055237	1.0782	-0.21606	0.092621	0.022125	-0.49942	0.007172	0.010986	-0.010223	0.1976	-0.063019	-0.007019	-0.009155
4.078	0.010529	0.070038	-0.1088	0.01709	0.01236	-0.11795	0.1535	0.00351	-0.076447	0.052643	0.007019	-0.002594	0.008392	0.015869	0.008545	0.013733	0.069275	-0.21515	-0.18433	0.26581	0.82672	-0.13718	0.072174	-0.031433	-0.3923	0.00412	0.023651	-0.005798	0.10849	-0.014496	-0.015411	-0.016022
4.079	0.011749	0.09491	-0.095673	0.009155	0.022888	-0.10635	0.14313	0.003357	-0.064392	0.2388	0.003662	-0.005646	-0.005341	0.033722	0.015717	-0.019379	0.050812	-0.25909	-0.027924	0.2739	0.37186	0.10178	0.1059	-0.038605	-0.27817	0.003357	0.013885	-0.00351	0.072632	0.006409	-0.010071	-0.011749
4.08	0.008392	0.12894	-0.088501	-0.002747	0.024719	-0.054321	0.13718	0.003357	-0.066528	0.10117	0.00824	-0.001984	-0.003052	0.03006	0.014191	-0.00824	-0.021362	-0.31921	0.10788	0.12268	0.026398	0.215	-0.015259	0.13641	-0.15762	-0.00061	0.025024	-0.008698	0.054932	0.02182	-0.00946	-0.020752
4.081	0.003967	0.15076	-0.095825	-0.020599	0.020599	-0.01297	0.13107	-0.000305	-0.081329	-0.055389	0.00473	-0.005493	-0.011292	0.026703	0.011139	-0.002747	-0.071106	-0.28992	0.092163	-0.006866	-0.014038	0.1503	-0.20554	0.46081	-0.053864	-0.010681	0.023499	-0.004425	0.065308	0.007172	-0.01236	-0.017395
4.082	0.000916	0.16617	-0.12634	-0.006256	0.011292	-0.045319	0.11398	0.002899	-0.078278	-0.076752	0.002136	-0.00412	-0.00061	0.026093	0.016174	-0.003052	-0.053864	-0.2536	0.14175	-0.012665	0.14099	0.14282	-0.34149	1.0724	0.064392	-0.005493	0.034485	-0.010834	0.004883	0.015717	-0.013733	-0.014038
4.083	-0.001984	0.18204	-0.13184	0.011292	0.016174	-0.022736	0.11566	0.002899	-0.081024	-0.048981	-0.002747	0.001984	-0.013733	0.030212	-0.000763	-0.000763	-0.028076	-0.11353	0.15198	-0.014343	0.14328	0.14114	-0.4483	0.93903	0.53833	-0.012665	0.032196	-0.013885	0.000153	-0.002747	-0.012817	-0.014801
4.084	0.002594	0.19409	-0.15427	0.01236	0.011597	0.015106	0.0914	0.002441	-0.08606	0.010223	0.00824	0.014648	-0.022583	0.031281	0.001221	0.002441	-0.02533	-0.0737	0.19852	0.040588	-0.069885	0.3595	-0.47043	0.54993	0.55603	-0.014191	0.015411	0.011139	0.058594	-0.001984	-0.004883	-0.016632
4.085	0.001068	0.15854	-0.15808	0.009308	-0.007629	0.023956	0.094604	0.004272	-0.097351	0.037079	0.005798	0.007935	-0.03952	0.021973	-0.00946	-0.014801	-0.006409	-0.088043	-0.062714	0.070801	-0.1944	0.47012	-0.29022	0.29037	0.36118	0.006561	0.010681	0.000458	0.28778	-0.008545	-0.006714	-0.014343
4.086	-0.000153	0.18204	-0.19516	0.01236	-0.007782	0.033722	0.085602	0.011597	-0.10376	0.071716	0.018921	-0.000763	-0.032959	0.048218	-0.027008	-0.016174	0.023499	-0.075989	-0.20462	0.073853	-0.13672	0.47836	-0.43915	-0.072937	-0.060272	0.020142	0.03479	-0.002899	0.35889	-0.018005	-0.010376	-0.015411
4.087	0.002899	0.2005	-0.19302	-0.001526	-0.020447	0.083771	0.068207	0.003662	-0.10071	0.25024	0.004272	0.005798	-0.009613	0.052643	-0.018005	0.000305	0.008392	0.047302	-0.39215	0.03006	0.31876	0.20874	-0.27771	-0.34149	-0.33127	0.007172	0.046234	-0.010529	0.23209	-0.005798	-0.014648	-0.015259
4.088	0.003052	0.16037	-0.1712	0	-0.013275	0.081177	0.066071	0.003815	-0.094147	0.30884	0.002441	0.023651	0.003052	0.021973	0.014954	-0.001678	0.000305	0.012665	-0.18951	-0.022125	0.67322	0.010376	-0.11765	-0.48966	-0.41107	0.007019	0.021057	-0.010071	-0.20752	0.006561	-0.00946	-0.009766
4.089	-0.002441	0.16373	-0.20798	-0.003052	-0.013123	0.025482	0.051117	0.005951	-0.090332	0.1976	-0.003815	-0.009003	0.001678	-0.002441	0.027771	0.005493	0.007172	0.024414	0.11749	-0.029449	0.43076	-0.011139	-0.15961	-0.51239	-0.29953	0.005646	0.000305	-0.010223	-0.68359	0.013275	-0.006256	-0.003052
4.09	-0.002289	0.20508	-0.25421	0.008087	-0.030518	0.003052	0.040741	0.001678	-0.080719	0.042419	-0.005341	-0.000458	0.024872	-0.02182	0.009155	-0.008698	0.10117	0.14587	1.0379	-0.068054	0.19241	-0.034943	-0.003052	-0.80093	-0.21576	0.000153	-0.000916	-0.015411	-0.42587	0.037231	-0.007324	-0.005493
